<svg width="96" height="24" viewBox="0 0 96 24" fill="none" xmlns="http://www.w3.org/2000/svg">
<path d="M2.02036 17.6962V2L0 2.44679V17.6962H2.02036Z" fill="#222222"/>
<path d="M22.408 17.696V2.00002L20.3877 2.44661V17.696H22.408Z" fill="#222222"/>
<path fill-rule="evenodd" clip-rule="evenodd" d="M82.3744 7.49546L81.2419 5.52335L79.5311 7.12604C78.8532 6.74544 78.1541 6.53785 77.0332 6.53785C75.7284 6.53785 74.6574 6.87635 73.9101 7.50625C73.16 8.13851 72.7516 9.05153 72.7516 10.1655C72.7516 11.2846 73.1433 12.1583 73.8821 12.7698C73.1778 13.4503 72.8522 14.2264 72.8522 14.9935C72.8522 15.6438 73.1247 16.1902 73.6158 16.5764C72.8867 17.2826 72.4894 18.1426 72.4894 19.117C72.4894 19.9253 72.8222 20.6544 73.5379 21.1766C74.2481 21.6949 75.322 22 76.7917 22C78.3806 22 79.65 21.6854 80.5262 21.0727C81.4096 20.4551 81.8792 19.5441 81.8792 18.3928C81.8792 17.5068 81.534 16.7792 80.9015 16.2764C80.2728 15.7766 79.3744 15.5096 78.283 15.5096H76.1062C75.5414 15.5096 75.1835 15.4194 74.9684 15.2621C74.7642 15.1127 74.6637 14.8834 74.6637 14.5308C74.6637 14.1765 74.8054 13.8106 75.1274 13.4156C75.699 13.602 76.3115 13.7126 77.0332 13.7126C78.3272 13.7126 79.4022 13.3848 80.1567 12.774C80.9145 12.1605 81.3351 11.2724 81.3351 10.1856C81.3351 9.32853 81.1066 8.65359 80.6018 8.04559L82.3744 7.49546ZM74.6637 10.1655C74.6637 9.47104 74.8703 8.97972 75.2511 8.65845C75.6364 8.33346 76.225 8.16092 77.0332 8.16092C77.8624 8.16092 78.4559 8.3338 78.8409 8.65847C79.2213 8.97926 79.4236 9.47009 79.4236 10.1655C79.4236 10.8287 79.2226 11.2994 78.8451 11.6085C78.4623 11.9219 77.8729 12.0901 77.0534 12.0901C76.234 12.0901 75.6393 11.9219 75.2513 11.6079C74.8689 11.2984 74.6637 10.8277 74.6637 10.1655ZM74.321 18.7147C74.321 18.1531 74.4921 17.6603 74.9535 17.1074C75.2046 17.1566 75.4708 17.1728 75.7635 17.1728H78.0612C78.7166 17.1728 79.1928 17.3194 79.5022 17.565C79.807 17.8069 79.9681 18.159 79.9681 18.6142C79.9681 19.1586 79.6948 19.5916 79.1812 19.8958C78.6611 20.2039 77.8949 20.3778 76.9322 20.3778C76.0175 20.3778 75.3625 20.2231 74.94 19.9426C74.5277 19.6689 74.321 19.265 74.321 18.7147Z" fill="#222222"/>
<path d="M28.806 7.64565L27.2103 6.4872L22.8258 12.0822L27.7691 18.0343L29.3598 16.8096L25.2401 11.998L28.806 7.64565Z" fill="#222222"/>
<path d="M8.41887 7.64573L6.82257 6.48752L2.43832 12.0824L7.3821 18.0344L8.97212 16.8096L4.85238 11.9979L8.41887 7.64573Z" fill="#222222"/>
<path fill-rule="evenodd" clip-rule="evenodd" d="M13.7207 6.50678C12.5741 6.50678 11.2941 6.86998 10.2355 7.47359L10.1219 7.53836L10.7223 8.96411L10.8642 8.89778C11.6923 8.51054 12.7482 8.22174 13.681 8.22174C14.3453 8.22174 14.8219 8.3793 15.1355 8.70579C15.4507 9.03409 15.6285 9.56151 15.6285 10.3621V11.0626H13.7207C12.3799 11.0626 11.3268 11.3419 10.6065 11.9108C9.88039 12.4843 9.51424 13.3344 9.51424 14.4242C9.51424 15.3797 9.79749 16.1598 10.3332 16.7016C10.8694 17.2438 11.6414 17.5299 12.5836 17.5299C13.5936 17.5299 14.8388 17.1013 15.8492 16.3508L16.0239 17.3724H17.5153V10.4408C17.5153 9.12021 17.2122 8.12917 16.5695 7.46927C15.9256 6.80815 14.9676 6.50678 13.7207 6.50678ZM11.3813 14.3452C11.3813 13.7078 11.5795 13.2652 11.9749 12.9749C12.3798 12.6777 13.0167 12.5208 13.9357 12.5208H15.6285V14.7957C15.3054 15.0973 14.8573 15.3675 14.3735 15.5649C13.8672 15.7715 13.333 15.8937 12.877 15.8937C12.3775 15.8937 12.0097 15.7501 11.7659 15.4982C11.5212 15.2453 11.3813 14.8625 11.3813 14.3452Z" fill="#222222"/>
<path fill-rule="evenodd" clip-rule="evenodd" d="M34.5614 6.50678C33.4155 6.50678 32.135 6.86997 31.0766 7.4736L30.963 7.53839L31.5638 8.96414L31.7056 8.89776C32.533 8.51055 33.5889 8.22174 34.5224 8.22174C35.1867 8.22174 35.6633 8.3793 35.9769 8.70579C36.2921 9.03409 36.4699 9.56151 36.4699 10.3621V11.0626H34.5614C33.2207 11.0626 32.1677 11.3419 31.4473 11.9108C30.7212 12.4843 30.355 13.3344 30.355 14.4242C30.355 15.3797 30.6384 16.1598 31.1743 16.7016C31.7107 17.2438 32.4828 17.5299 33.425 17.5299C34.435 17.5299 35.6796 17.1013 36.6899 16.3508L36.865 17.3724H38.356V10.4408C38.356 9.12023 38.0531 8.12918 37.4105 7.46928C36.7667 6.80814 35.8087 6.50678 34.5614 6.50678ZM32.222 14.3452C32.222 13.7078 32.4202 13.2652 32.8156 12.9749C33.2206 12.6777 33.8576 12.5208 34.7767 12.5208H36.4699V14.7957C36.1467 15.0973 35.6986 15.3675 35.2147 15.5649C34.7082 15.7715 34.1741 15.8937 33.7184 15.8937C33.2189 15.8937 32.8509 15.7501 32.607 15.4982C32.362 15.2452 32.222 14.8625 32.222 14.3452Z" fill="#222222"/>
<path fill-rule="evenodd" clip-rule="evenodd" d="M45.229 6.50678C43.7206 6.50678 42.4873 7.00059 41.6331 7.95143C40.7809 8.89989 40.3223 10.2849 40.3223 12.0379C40.3223 13.7808 40.7759 15.1562 41.6259 16.0976C42.4779 17.0414 43.7113 17.5299 45.229 17.5299C46.7569 17.5299 47.9905 17.0415 48.8401 16.0974C49.6874 15.1559 50.1355 13.7803 50.1355 12.0379C50.1355 10.2853 49.6823 8.90024 48.8327 7.9516C47.9809 7.00045 46.7475 6.50678 45.229 6.50678ZM42.3906 12.0379C42.3906 10.7487 42.6617 9.77738 43.1461 9.13198C43.6257 8.49301 44.326 8.1577 45.229 8.1577C46.132 8.1577 46.8325 8.49302 47.3123 9.132C47.7969 9.77741 48.0682 10.7487 48.0682 12.0379C48.0682 13.3275 47.7969 14.2886 47.3129 14.9238C46.8338 15.5527 46.1335 15.8792 45.229 15.8792C44.3245 15.8792 43.6244 15.5527 43.1455 14.9238C42.6617 14.2886 42.3906 13.3275 42.3906 12.0379Z" fill="#222222"/>
<path fill-rule="evenodd" clip-rule="evenodd" d="M56.9684 6.50678C55.6935 6.50678 54.6174 6.95238 53.8072 7.52632L53.5938 6.78655H52.1018V21.553H54.0945V17.439C54.7765 17.6507 55.4581 17.7004 56.1623 17.7004C57.6476 17.7004 58.865 17.1074 59.7081 16.0789C60.5486 15.0535 61.0089 13.6057 61.0089 11.9038C61.0089 10.2627 60.6993 8.91554 60.0343 7.97471C59.3633 7.02532 58.3423 6.50678 56.9684 6.50678ZM56.5252 8.21917C55.6804 8.21917 54.72 8.54461 54.0945 8.94909V15.813C54.6313 15.9954 55.2334 16.0485 55.7392 16.0485C56.8386 16.0485 57.6376 15.6654 58.167 14.9719C58.7016 14.2714 58.9759 13.2349 58.9759 11.9038C58.9759 10.6552 58.7897 9.73198 58.3949 9.12435C58.0086 8.52979 57.4103 8.21917 56.5252 8.21917Z" fill="#222222"/>
<path fill-rule="evenodd" clip-rule="evenodd" d="M66.7283 6.50678C65.5823 6.50678 64.3022 6.86998 63.2438 7.4736L63.1303 7.53836L63.7303 8.96414L63.8722 8.89777C64.7001 8.51055 65.7561 8.22174 66.6893 8.22174C67.3536 8.22174 67.8303 8.3793 68.1439 8.70579C68.4591 9.03409 68.637 9.56151 68.637 10.3621V11.0626H66.7283C65.3878 11.0626 64.3349 11.3419 63.6145 11.9108C62.8884 12.4843 62.5221 13.3344 62.5221 14.4242C62.5221 15.3797 62.8054 16.1598 63.3412 16.7016C63.8775 17.2438 64.6495 17.5299 65.5918 17.5299C66.6019 17.5299 67.8469 17.1013 68.8573 16.3508L69.032 17.3724H70.5232V10.4408C70.5232 9.12023 70.2203 8.12918 69.5776 7.46927C68.9337 6.80814 67.9756 6.50678 66.7283 6.50678ZM64.3887 14.3452C64.3887 13.7078 64.5869 13.2652 64.9826 12.9749C65.3877 12.6777 66.0249 12.5208 66.9443 12.5208H68.637V14.7957C68.3138 15.0973 67.8656 15.3675 67.3818 15.5649C66.8754 15.7715 66.3413 15.8937 65.8855 15.8937C65.3858 15.8937 65.0177 15.7501 64.7737 15.4981C64.5287 15.2452 64.3887 14.8625 64.3887 14.3452Z" fill="#222222"/>
<path fill-rule="evenodd" clip-rule="evenodd" d="M88.0166 6.50678C86.5565 6.50678 85.3857 7.02319 84.5829 7.98517C83.7834 8.94328 83.3629 10.3265 83.3629 12.0379C83.3629 13.8169 83.7827 15.1942 84.6321 16.1277C85.4841 17.064 86.7462 17.5299 88.3769 17.5299C89.6602 17.5299 90.9274 17.23 91.953 16.666L92.0648 16.6046L91.5229 15.1553L91.3744 15.2263C90.576 15.6084 89.4776 15.8397 88.557 15.8397C87.4801 15.8397 86.7307 15.5711 86.2357 15.0557C85.7615 14.5619 85.4981 13.8183 85.4315 12.7949H92.1374L92.1657 12.6832C92.23 12.4292 92.27 11.9433 92.27 11.488C92.27 9.92449 91.8947 8.6778 91.1664 7.81962C90.4349 6.95754 89.3636 6.50678 88.0166 6.50678ZM90.3287 11.2229H85.4089C85.4559 10.2333 85.6896 9.48 86.0924 8.97053C86.5102 8.44192 87.1243 8.1577 87.9566 8.1577C88.7837 8.1577 89.3634 8.41052 89.7434 8.91602C90.1136 9.40837 90.312 10.1629 90.3287 11.2229Z" fill="#222222"/>
</svg>
