<svg width="100" height="32" viewBox="0 0 100 32" fill="none" xmlns="http://www.w3.org/2000/svg">
<path d="M0 16C0 7.16344 7.16344 0 16 0H84C92.8366 0 100 7.16344 100 16C100 24.8366 92.8366 32 84 32H16C7.16345 32 0 24.8366 0 16Z" fill="#2E2E2E"/>
<path d="M25.5377 15.9145C25.543 15.4159 25.675 14.9267 25.9213 14.4932C26.1677 14.0597 26.5203 13.6961 26.9458 13.4366C26.6755 13.0509 26.319 12.7335 25.9047 12.5097C25.4905 12.2858 25.0298 12.1616 24.5592 12.1469C23.5628 12.0394 22.5902 12.744 22.0771 12.744C21.564 12.744 20.7704 12.1469 19.9232 12.1469C19.3757 12.1647 18.8423 12.3242 18.3748 12.6099C17.9074 12.8956 17.5219 13.2977 17.2561 13.7769C16.1284 15.8011 16.9637 18.7209 18.0676 20.3569C18.6225 21.1511 19.2609 22.0348 20.1141 21.9989C20.9673 21.9631 21.2478 21.4735 22.2501 21.4735C23.2525 21.4735 23.527 21.9989 24.3921 21.981C25.2573 21.9631 25.842 21.1869 26.373 20.3868C26.7695 19.8228 27.0755 19.2003 27.28 18.5418C26.7633 18.3242 26.3224 17.9588 26.0124 17.4914C25.7025 17.0241 25.5373 16.4755 25.5377 15.9145Z" fill="white"/>
<path d="M23.8847 11.0839C24.3669 10.5013 24.6043 9.75425 24.547 9C23.8075 9.07988 23.1244 9.43338 22.6318 9.99118C22.149 10.5437 21.9044 11.265 21.9516 11.9974C22.3218 12.0011 22.6881 11.9208 23.0229 11.7626C23.3577 11.6043 23.6523 11.3723 23.8847 11.0839Z" fill="white"/>
<path d="M33.9551 20L34.5405 18.2061H37.355L37.9404 20H39.6699L36.9844 12.2227H34.9111L32.2148 20H33.9551ZM34.9487 16.9492L35.9209 13.9736H35.9746L36.9468 16.9492H34.9487ZM40.5186 22.1914H42.1084V19.0654H42.1514C42.377 19.5488 42.8657 20.0967 43.8164 20.0967C45.1484 20.0967 46.1851 19.0386 46.1797 17.0889C46.1851 15.0908 45.1055 14.0918 43.8164 14.0918C42.8335 14.0918 42.3716 14.6719 42.1514 15.1445H42.0869V14.167H40.5186V22.1914ZM42.0762 17.0781C42.0708 16.0308 42.5166 15.3594 43.3115 15.3594C44.1333 15.3594 44.563 16.063 44.5576 17.0781C44.563 18.1094 44.1226 18.8237 43.3115 18.8291C42.522 18.8237 42.0708 18.1309 42.0762 17.0781ZM47.2109 22.1914H48.8008V19.0654H48.8438C49.0693 19.5488 49.5581 20.0967 50.5088 20.0967C51.8408 20.0967 52.8774 19.0386 52.8721 17.0889C52.8774 15.0908 51.7979 14.0918 50.5088 14.0918C49.5259 14.0918 49.064 14.6719 48.8438 15.1445H48.7793V14.167H47.2109V22.1914ZM48.7686 17.0781C48.7632 16.0308 49.209 15.3594 50.0039 15.3594C50.8257 15.3594 51.2554 16.063 51.25 17.0781C51.2554 18.1094 50.8149 18.8237 50.0039 18.8291C49.2144 18.8237 48.7632 18.1309 48.7686 17.0781ZM60.6924 14.4463H62.2393C62.2178 13.0713 61.0845 12.1152 59.3604 12.1152C57.6577 12.1152 56.4116 13.0552 56.417 14.4678C56.417 15.6064 57.2227 16.2617 58.5332 16.584L59.3818 16.7881C60.2305 16.9976 60.7139 17.2446 60.7139 17.7764C60.7139 18.3564 60.166 18.7539 59.3174 18.7539C58.458 18.7539 57.835 18.3564 57.7812 17.5723H56.2129C56.2612 19.2427 57.459 20.1128 59.3389 20.1074C61.2349 20.1128 62.3413 19.1997 62.3467 17.7764C62.3413 16.4819 61.3477 15.8052 60.0156 15.499L59.3174 15.3271C58.646 15.1768 58.0659 14.9243 58.0713 14.3604C58.0767 13.8447 58.5332 13.4688 59.3496 13.4688C60.1392 13.4688 60.6279 13.8286 60.6924 14.4463ZM66.4395 14.167H65.3438V12.7705H63.7539V14.167H62.9482V15.3594H63.7539V18.4316C63.7432 19.5649 64.5273 20.0806 65.6768 20.0752C66.0688 20.0806 66.3535 20.0483 66.5254 20.0215V18.7646C66.332 18.7808 66.0527 18.7969 65.8916 18.7969C65.5693 18.7861 65.3384 18.6733 65.3438 18.2061V15.3594H66.4395V14.167ZM69.9951 20.1182C71.7622 20.1128 72.8579 18.9043 72.8633 17.0996C72.8579 15.3003 71.7622 14.0918 69.9951 14.0918C68.2334 14.0918 67.1323 15.3003 67.1377 17.0996C67.1323 18.9043 68.2334 20.1128 69.9951 20.1182ZM68.749 17.0996C68.749 16.0737 69.1733 15.3057 70.0059 15.3057C70.8169 15.3057 71.2466 16.0737 71.2412 17.0996C71.2466 18.1201 70.8169 18.8774 70.0059 18.8828C69.1733 18.8774 68.749 18.1201 68.749 17.0996ZM73.8623 20H75.4521V16.6807C75.4468 15.9663 75.9785 15.4668 76.6982 15.4668C76.9185 15.4668 77.2246 15.5044 77.375 15.5527V14.1348C77.2354 14.1025 77.0312 14.0811 76.8701 14.0811C76.2148 14.0811 75.6724 14.4624 75.4629 15.1768H75.3984V14.167H73.8623V20ZM80.6084 20.1182C82.0479 20.1128 83.0146 19.4146 83.2402 18.335H81.7256C81.5698 18.6841 81.1831 18.9204 80.6406 18.9258C79.8188 18.9204 79.2979 18.3779 79.2979 17.4971H83.2832V17.0459C83.2832 15.0586 82.0747 14.0918 80.5439 14.0918C78.8359 14.0918 77.7241 15.311 77.7295 17.1104C77.7241 18.958 78.8198 20.1128 80.6084 20.1182ZM79.2979 16.498C79.3301 15.8267 79.8457 15.2788 80.5762 15.2842C81.2852 15.2788 81.7739 15.7891 81.7793 16.498H79.2979Z" fill="#EEEEEE"/>
</svg>
