<svg width="108" height="32" viewBox="0 0 108 32" fill="none" xmlns="http://www.w3.org/2000/svg">
<path d="M0 16C0 7.16344 7.16344 0 16 0H92C100.837 0 108 7.16344 108 16C108 24.8366 100.837 32 92 32H16C7.16344 32 0 24.8366 0 16Z" fill="#2E2E2E"/>
<path d="M15.8698 10.1901C15.7171 10.3717 15.6392 10.6053 15.652 10.8428V21.1556C15.6363 21.3936 15.7145 21.6282 15.8698 21.8083L15.9022 21.8456L21.6426 16.0691V15.9293L15.9022 10.1575L15.8698 10.1901Z" fill="url(#paint0_linear_7446_73414)"/>
<path d="M23.5425 17.9941L21.6426 16.0691V15.9293L23.5425 14.0033L23.5842 14.0312L25.859 15.3273C26.5076 15.6956 26.5076 16.3017 25.859 16.6747L23.5934 17.9708L23.5425 17.9941Z" fill="url(#paint1_linear_7446_73414)"/>
<path d="M23.5977 17.9672L21.6426 15.9998L15.8698 21.8083C16.0007 21.9256 16.1682 21.9936 16.3434 21.9996C16.5186 22.0055 16.6903 21.9496 16.8288 21.8415L23.5977 17.9672Z" fill="url(#paint2_linear_7446_73414)"/>
<path d="M23.5977 14.0317L16.8288 10.1621C16.6912 10.0525 16.5196 9.9952 16.3442 10.0003C16.1688 10.0054 16.0008 10.0727 15.8698 10.1901L21.6426 15.9998L23.5977 14.0317Z" fill="url(#paint3_linear_7446_73414)"/>
<path d="M16.829 10.2269L25.8589 15.3926C25.9822 15.4479 26.0909 15.5315 26.1762 15.6368C26.2615 15.742 26.3211 15.866 26.35 15.9987C26.3357 15.8527 26.2825 15.7133 26.1961 15.5951C26.1097 15.477 25.9933 15.3845 25.859 15.3273L16.8288 10.1621C16.1848 9.7891 15.652 10.0969 15.652 10.8428L15.6522 10.9122C15.6661 10.1663 16.185 9.85856 16.829 10.2269Z" fill="white"/>
<path d="M36.8223 14.7256H38.4551C38.2402 13.1948 36.8921 12.1152 35.1357 12.1152C33.084 12.1152 31.5049 13.5977 31.5049 16.1221C31.5049 18.582 32.9873 20.1074 35.168 20.1074C37.1284 20.1074 38.5303 18.8613 38.5303 16.8203V15.8535H35.2861V17.0674H36.9727C36.9512 18.0449 36.2905 18.6733 35.1787 18.6787C33.938 18.6733 33.1484 17.7441 33.1484 16.1006C33.1484 14.4678 33.9648 13.5493 35.168 13.5439C36.0166 13.5493 36.6021 13.9951 36.8223 14.7256ZM42.3008 20.1182C44.0679 20.1128 45.1636 18.9043 45.1689 17.0996C45.1636 15.3003 44.0679 14.0918 42.3008 14.0918C40.5391 14.0918 39.438 15.3003 39.4434 17.0996C39.438 18.9043 40.5391 20.1128 42.3008 20.1182ZM41.0547 17.0996C41.0547 16.0737 41.479 15.3057 42.3115 15.3057C43.1226 15.3057 43.5522 16.0737 43.5469 17.0996C43.5522 18.1201 43.1226 18.8774 42.3115 18.8828C41.479 18.8774 41.0547 18.1201 41.0547 17.0996ZM48.7891 20.1182C50.5562 20.1128 51.6519 18.9043 51.6572 17.0996C51.6519 15.3003 50.5562 14.0918 48.7891 14.0918C47.0273 14.0918 45.9263 15.3003 45.9316 17.0996C45.9263 18.9043 47.0273 20.1128 48.7891 20.1182ZM47.543 17.0996C47.543 16.0737 47.9673 15.3057 48.7998 15.3057C49.6108 15.3057 50.0405 16.0737 50.0352 17.0996C50.0405 18.1201 49.6108 18.8774 48.7998 18.8828C47.9673 18.8774 47.543 18.1201 47.543 17.0996ZM55.2773 22.3096C56.937 22.3096 58.1079 21.5522 58.1133 20.0645V14.167H56.5342V15.1445H56.4697C56.2549 14.6719 55.7822 14.0918 54.8047 14.0918C53.5156 14.0918 52.4307 15.0747 52.4307 17.0459C52.4307 18.9902 53.4888 19.9194 54.8047 19.9141C55.7446 19.9194 56.2603 19.4414 56.4697 18.9688H56.5449V20.0322C56.5396 20.8433 56.0454 21.1602 55.3096 21.1602C54.6758 21.1602 54.2354 20.9507 54.1494 20.4834H52.5811C52.6724 21.5845 53.666 22.3096 55.2773 22.3096ZM54.0635 17.0674C54.0581 16.063 54.4878 15.3594 55.2988 15.3594C56.0991 15.3594 56.5449 16.0308 56.5449 17.0674C56.5449 18.104 56.0938 18.7163 55.2988 18.7217C54.4932 18.7163 54.0581 18.0771 54.0635 17.0674ZM60.9385 12.2227H59.3486V20H60.9385V12.2227ZM64.8164 20.1182C66.2559 20.1128 67.2227 19.4146 67.4482 18.335H65.9336C65.7778 18.6841 65.3911 18.9204 64.8486 18.9258C64.0269 18.9204 63.5059 18.3779 63.5059 17.4971H67.4912V17.0459C67.4912 15.0586 66.2827 14.0918 64.752 14.0918C63.0439 14.0918 61.9321 15.311 61.9375 17.1104C61.9321 18.958 63.0278 20.1128 64.8164 20.1182ZM63.5059 16.498C63.5381 15.8267 64.0537 15.2788 64.7842 15.2842C65.4932 15.2788 65.9819 15.7891 65.9873 16.498H63.5059ZM71.0576 20H72.6689V17.4648H74.0654C75.8594 17.4648 76.8906 16.396 76.8906 14.8438C76.8906 13.313 75.8755 12.2227 74.1084 12.2227H71.0576V20ZM72.6689 16.165V13.5439H73.8076C74.7637 13.5493 75.231 14.0703 75.2256 14.8438C75.231 15.6279 74.7637 16.165 73.8076 16.165H72.6689ZM79.4688 12.2227H77.8789V20H79.4688V12.2227ZM80.4248 18.3672C80.4302 19.522 81.252 20.1128 82.3691 20.1074C83.2339 20.1128 83.7925 19.7314 84.0771 19.1943H84.1201V20H85.624V16.0684C85.6294 14.6611 84.4263 14.0918 83.1533 14.0918C81.6064 14.0918 80.7256 14.8867 80.6289 15.8965H82.1436C82.2295 15.499 82.5679 15.2573 83.1104 15.252C83.7065 15.2573 84.0396 15.5366 84.0449 16.0254V16.498C83.7979 16.5088 83.0137 16.5464 82.5947 16.5732C81.4722 16.6431 80.4302 17.0674 80.4248 18.3672ZM81.9502 18.3242C81.9502 17.873 82.2993 17.6099 82.8525 17.5615C83.1211 17.54 83.8032 17.5024 84.0449 17.4917V17.916C84.0503 18.5337 83.5454 19.0063 82.8203 19.0117C82.3101 19.0063 81.9502 18.77 81.9502 18.3242ZM87.5576 22.1914C88.7876 22.186 89.4268 21.5845 89.7598 20.6445L92.0371 14.167H90.3506L89.1152 18.4639H89.0508L87.8262 14.167H86.1611L88.2559 20.1611L88.1592 20.4082C87.9658 20.9131 87.7134 20.9453 87.3965 20.9453C87.1978 20.9453 86.9561 20.9399 86.752 20.9238V22.1592C86.9561 22.1807 87.2461 22.186 87.5576 22.1914Z" fill="#EEEEEE"/>
<defs>
<linearGradient id="paint0_linear_7446_73414" x1="25.44" y1="10.5935" x2="18.4766" y2="22.6283" gradientUnits="userSpaceOnUse">
<stop stop-color="#00A0FF"/>
<stop offset="0.01" stop-color="#00A1FF"/>
<stop offset="0.26" stop-color="#00BEFF"/>
<stop offset="0.51" stop-color="#00D2FF"/>
<stop offset="0.76" stop-color="#00DFFF"/>
<stop offset="1" stop-color="#00E3FF"/>
</linearGradient>
<linearGradient id="paint1_linear_7446_73414" x1="27.1723" y1="16" x2="1.6715" y2="16" gradientUnits="userSpaceOnUse">
<stop stop-color="#FFE000"/>
<stop offset="0.41" stop-color="#FFBD00"/>
<stop offset="0.78" stop-color="#FFA500"/>
<stop offset="1" stop-color="#FF9C00"/>
</linearGradient>
<linearGradient id="paint2_linear_7446_73414" x1="24.881" y1="12.1445" x2="5.06479" y2="25.7719" gradientUnits="userSpaceOnUse">
<stop stop-color="#FF3A44"/>
<stop offset="1" stop-color="#C31162"/>
</linearGradient>
<linearGradient id="paint3_linear_7446_73414" x1="13.6358" y1="3.51643" x2="22.4841" y2="9.60291" gradientUnits="userSpaceOnUse">
<stop stop-color="#32A071"/>
<stop offset="0.07" stop-color="#2DA771"/>
<stop offset="0.48" stop-color="#15CF74"/>
<stop offset="0.8" stop-color="#06E775"/>
<stop offset="1" stop-color="#00F076"/>
</linearGradient>
</defs>
</svg>
